{"title":"The.Runaways.2010.SWESUB.DVDRip.XviD.AC3.(5.1)-Zen_Bud","uid":5731173,"size":1471874152,"categoryP":"video","categoryS":"movies","magnet":"?xt=urn:btih:577f147626bcf66fc9c31f3bb9f2868a1e67bec4&amp;dn=The.Runaways.2010.SWESUB.DVDRip.XviD.AC3.%285.1%29-Zen_Bud&amp;tr=udp%3A%2F%2Ftracker.openbittorrent.com%3A80&amp;tr=udp%3A%2F%2Fopen.demonii.com%3A1337&amp;tr=udp%3A%2F%2Ftracker.coppersurfer.tk%3A6969&amp;tr=udp%3A%2F%2Fexodus.desync.com%3A6969","seeders":0,"leechers":1,"uploader":"Zen_Bud","files":1,"time":1280652810,"description":"General\nComplete name                    : The.Runaways.2010.avi\nFormat                           : AVI\nFile size                        : 1.37 GiB\nDuration                         : 1h 46mn\nOverall bit rate                 : 1 841 Kbps\n\nVideo\n\nFormat                           : MPEG-4 Visual\nCodec ID/Hint                    : XviD\nDuration                         : 1h 46mn\nBit rate                         : 1 382 Kbps\nWidth                            : 720 pixels\nHeight                           : 364 pixels\nDisplay aspect ratio             : 2.35:1\nStream size                      : 1.03 GiB (75%)\nWriting library                  : XviD 1.1.2 (UTC 2006-11-01)\n\nAudio\n\nFormat                           : AC-3\nDuration                         : 1h 46mn\nBit rate                         : 448 Kbps\nChannel(s)                       : 6 channels\nChannel positions                : Front: L C R, Side: L R, LFE\nSampling rate                    : 48.0 KHz\nStream size                      : 342 MiB (24%)\nAlignment                        : Aligned on interleaves","torrent":{"xt":"urn:btih:577f147626bcf66fc9c31f3bb9f2868a1e67bec4","amp;dn":"The.Runaways.2010.SWESUB.DVDRip.XviD.AC3.%285.1%29-Zen_Bud","amp;tr":["udp%3A%2F%2Ftracker.openbittorrent.com%3A80","udp%3A%2F%2Fopen.demonii.com%3A1337","udp%3A%2F%2Ftracker.coppersurfer.tk%3A6969","udp%3A%2F%2Fexodus.desync.com%3A6969"],"infoHash":"577f147626bcf66fc9c31f3bb9f2868a1e67bec4","infoHashBuffer":{"type":"Buffer","data":[87,127,20,118,38,188,246,111,201,195,31,59,185,242,134,138,30,103,190,196]},"announce":[],"urlList":[]}}